<!DOCTYPE svg PUBLIC "-//W3C//DTD SVG 1.1//EN" "http://www.w3.org/Graphics/SVG/1.1/DTD/svg11.dtd">
<!-- Uploaded to: SVG Repo, www.svgrepo.com, Transformed by: SVG Repo Mixer Tools -->
<svg fill="#ffffff" version="1.1" id="Capa_1" xmlns="http://www.w3.org/2000/svg" xmlns:xlink="http://www.w3.org/1999/xlink" width="800px" height="800px" viewBox="0 0 428.4 428.4" xml:space="preserve" stroke="#ffffff">
<g id="SVGRepo_bgCarrier" stroke-width="0"/>
<g id="SVGRepo_tracerCarrier" stroke-linecap="round" stroke-linejoin="round"/>
<g id="SVGRepo_iconCarrier"> <g> <path d="M329.8,0H98.6C76.092,0,57.8,18.292,57.8,40.8V387.6c0,22.508,18.292,40.801,40.8,40.801h231.2 c22.508,0,40.801-18.293,40.801-40.801V40.8C370.601,18.292,352.308,0,329.8,0z M139.4,374c0,3.74-3.06,6.801-6.8,6.801h-20.4 c-3.74,0-6.8-3.061-6.8-6.801v-20.4c0-3.74,3.06-6.799,6.8-6.799h20.4c3.74,0,6.8,3.059,6.8,6.799V374z M139.4,312.801 c0,3.74-3.06,6.799-6.8,6.799h-20.4c-3.74,0-6.8-3.059-6.8-6.799v-20.4c0-3.74,3.06-6.801,6.8-6.801h20.4 c3.74,0,6.8,3.061,6.8,6.801V312.801z M139.4,251.6c0,3.74-3.06,6.801-6.8,6.801h-20.4c-3.74,0-6.8-3.061-6.8-6.801v-20.4 c0-3.738,3.06-6.799,6.8-6.799h20.4c3.74,0,6.8,3.061,6.8,6.799V251.6z M139.4,190.4c0,3.74-3.06,6.8-6.8,6.8h-20.4 c-3.74,0-6.8-3.06-6.8-6.8V170c0-3.74,3.06-6.8,6.8-6.8h20.4c3.74,0,6.8,3.06,6.8,6.8V190.4z M200.6,374 c0,3.74-3.06,6.801-6.8,6.801h-20.4c-3.74,0-6.8-3.061-6.8-6.801v-20.4c0-3.74,3.06-6.799,6.8-6.799h20.4 c3.74,0,6.8,3.059,6.8,6.799V374z M200.6,312.801c0,3.74-3.06,6.799-6.8,6.799h-20.4c-3.74,0-6.8-3.059-6.8-6.799v-20.4 c0-3.74,3.06-6.801,6.8-6.801h20.4c3.74,0,6.8,3.061,6.8,6.801V312.801z M200.6,251.6c0,3.74-3.06,6.801-6.8,6.801h-20.4 c-3.74,0-6.8-3.061-6.8-6.801v-20.4c0-3.738,3.06-6.799,6.8-6.799h20.4c3.74,0,6.8,3.061,6.8,6.799V251.6z M200.6,190.4 c0,3.74-3.06,6.8-6.8,6.8h-20.4c-3.74,0-6.8-3.06-6.8-6.8V170c0-3.74,3.06-6.8,6.8-6.8h20.4c3.74,0,6.8,3.06,6.8,6.8V190.4z M261.8,374c0,3.74-3.061,6.801-6.801,6.801h-20.398c-3.74,0-6.801-3.061-6.801-6.801v-20.4c0-3.74,3.061-6.799,6.801-6.799h20.398 c3.74,0,6.801,3.059,6.801,6.799V374z M261.8,312.801c0,3.74-3.061,6.799-6.801,6.799h-20.398c-3.74,0-6.801-3.059-6.801-6.799 v-20.4c0-3.74,3.061-6.801,6.801-6.801h20.398c3.74,0,6.801,3.061,6.801,6.801V312.801z M261.8,251.6 c0,3.74-3.061,6.801-6.801,6.801h-20.398c-3.74,0-6.801-3.061-6.801-6.801v-20.4c0-3.738,3.061-6.799,6.801-6.799h20.398 c3.74,0,6.801,3.061,6.801,6.799V251.6z M261.8,190.4c0,3.74-3.061,6.8-6.801,6.8h-20.398c-3.74,0-6.801-3.06-6.801-6.8V170 c0-3.74,3.061-6.8,6.801-6.8h20.398c3.74,0,6.801,3.06,6.801,6.8V190.4z M322.999,374c0,3.74-3.059,6.801-6.799,6.801h-20.4 c-3.74,0-6.801-3.061-6.801-6.801v-81.6c0-3.74,3.061-6.801,6.801-6.801h20.4c3.74,0,6.799,3.061,6.799,6.801V374z M322.999,251.6 c0,3.74-3.059,6.801-6.799,6.801h-20.4c-3.74,0-6.801-3.061-6.801-6.801v-20.4c0-3.738,3.061-6.799,6.801-6.799h20.4 c3.74,0,6.799,3.061,6.799,6.799V251.6z M322.999,190.4c0,3.74-3.059,6.8-6.799,6.8h-20.4c-3.74,0-6.801-3.06-6.801-6.8V170 c0-3.74,3.061-6.8,6.801-6.8h20.4c3.74,0,6.799,3.06,6.799,6.8V190.4z M336.601,102c0,7.48-6.121,13.6-13.602,13.6H105.4 c-7.48,0-13.6-6.12-13.6-13.6V54.4c0-7.48,6.12-13.6,13.6-13.6h217.599c7.48,0,13.602,6.12,13.602,13.6V102z"/> </g> </g>
</svg>