<?xml version="1.0" encoding="iso-8859-1"?>
<!-- Uploaded to: SVG Repo, www.svgrepo.com, Generator: SVG Repo Mixer Tools -->
<svg fill="#000000" height="800px" width="800px" version="1.1" id="Layer_1" xmlns="http://www.w3.org/2000/svg" xmlns:xlink="http://www.w3.org/1999/xlink" 
	 viewBox="0 0 512.001 512.001" xml:space="preserve">
<g>
	<g>
		<path d="M403.432,0H108.57C86.583,0,68.695,17.887,68.695,39.874v432.253c0,21.987,17.887,39.874,39.874,39.874h294.862
			c21.987,0,39.874-17.887,39.874-39.874V39.874C443.305,17.887,425.417,0,403.432,0z M424.297,472.127h-0.001
			c0,11.505-9.36,20.865-20.865,20.865H108.57c-11.505,0-20.865-9.36-20.865-20.865V39.874c0-11.505,9.36-20.865,20.865-20.865
			h294.862c11.505,0,20.865,9.36,20.865,20.865V472.127z"/>
	</g>
</g>
<g>
	<g>
		<path d="M382.1,51.081H129.901c-5.25,0-9.504,4.255-9.504,9.504v82.322c0,5.249,4.254,9.504,9.504,9.504H382.1
			c5.25,0,9.504-4.255,9.504-9.504V60.585C391.604,55.336,387.349,51.081,382.1,51.081z M372.596,133.403h-233.19V70.089h233.19
			V133.403z"/>
	</g>
</g>
<g>
	<g>
		<path d="M185.115,181.553h-55.214c-5.25,0-9.504,4.255-9.504,9.504v59.335c0,5.249,4.254,9.504,9.504,9.504h55.214
			c5.25,0,9.504-4.255,9.504-9.504v-59.335C194.62,185.809,190.366,181.553,185.115,181.553z M175.611,240.889h-36.205v-40.327
			h36.205V240.889z"/>
	</g>
</g>
<g>
	<g>
		<path d="M185.115,283.696h-55.214c-5.25,0-9.504,4.255-9.504,9.504v59.335c0,5.249,4.254,9.504,9.504,9.504h55.214
			c5.25,0,9.504-4.255,9.504-9.504v-59.335C194.62,287.952,190.366,283.696,185.115,283.696z M175.611,343.032h-36.205v-40.327
			h36.205V343.032z"/>
	</g>
</g>
<g>
	<g>
		<path d="M185.115,385.84h-55.214c-5.25,0-9.504,4.255-9.504,9.504v59.335c0,5.249,4.254,9.504,9.504,9.504h55.214
			c5.25,0,9.504-4.255,9.504-9.504v-59.335C194.62,390.095,190.366,385.84,185.115,385.84z M175.611,445.175h-36.205v-40.327h36.205
			V445.175z"/>
	</g>
</g>
<g>
	<g>
		<path d="M283.608,181.553h-55.214c-5.25,0-9.504,4.255-9.504,9.504v59.335c0,5.249,4.254,9.504,9.504,9.504h55.214
			c5.25,0,9.504-4.255,9.504-9.504v-59.335C293.112,185.809,288.857,181.553,283.608,181.553z M274.103,240.889h-36.205v-40.327
			h36.205V240.889z"/>
	</g>
</g>
<g>
	<g>
		<path d="M283.608,283.696h-55.214c-5.25,0-9.504,4.255-9.504,9.504v59.335c0,5.249,4.254,9.504,9.504,9.504h55.214
			c5.25,0,9.504-4.255,9.504-9.504v-59.335C293.112,287.952,288.857,283.696,283.608,283.696z M274.103,343.032h-36.205v-40.327
			h36.205V343.032z"/>
	</g>
</g>
<g>
	<g>
		<path d="M283.608,385.84h-55.214c-5.25,0-9.504,4.255-9.504,9.504v59.335c0,5.249,4.254,9.504,9.504,9.504h55.214
			c5.25,0,9.504-4.255,9.504-9.504v-59.335C293.112,390.095,288.857,385.84,283.608,385.84z M274.103,445.175h-36.205v-40.327
			h36.205V445.175z"/>
	</g>
</g>
<g>
	<g>
		<path d="M382.1,181.553h-55.214c-5.25,0-9.504,4.255-9.504,9.504v59.335c0,5.249,4.254,9.504,9.504,9.504H382.1
			c5.25,0,9.504-4.255,9.504-9.504v-59.335C391.604,185.809,387.349,181.553,382.1,181.553z M372.596,240.889H336.39v-40.327h36.205
			V240.889z"/>
	</g>
</g>
<g>
	<g>
		<path d="M382.1,283.696h-55.214c-5.25,0-9.504,4.255-9.504,9.504V454.68c0,5.249,4.254,9.504,9.504,9.504H382.1
			c5.25,0,9.504-4.255,9.504-9.504V293.201C391.604,287.952,387.349,283.696,382.1,283.696z M372.596,445.175H336.39v-142.47h36.205
			V445.175z"/>
	</g>
</g>
</svg>