<svg xmlns="http://www.w3.org/2000/svg" height="48" viewBox="0 -960 960 960" width="48"><path d="M381.081-355.846q-95.545 0-161.447-65.918-65.903-65.918-65.903-160.423t65.434-160.428q65.435-65.924 160.364-65.924t161.296 65.925q66.367 65.925 66.367 160.311 0 41.072-15.153 80.63-15.154 39.558-41.116 69.309L796.271-188.86q3.383 3.416 3.768 10.696.384 7.279-4.327 11.664-4.712 4.385-11.665 4.385-6.953 0-10.653-4.639L529.335-411.115q-29.493 27.328-69.442 41.299-39.949 13.97-78.812 13.97Zm-.389-30.192q82.161 0 139.234-56.528Q577-499.093 577-582.296q0-83.204-57.074-139.627-57.073-56.423-139.676-56.423-82.795 0-139.561 56.527-56.766 56.527-56.766 139.731 0 83.203 56.84 139.626 56.84 56.424 139.929 56.424Z"/></svg>