<svg xmlns="http://www.w3.org/2000/svg" height="48" viewBox="0 -960 960 960" width="48"><path d="M480-458.346 264.462-242.808q-4.385 4.385-10.885 4.77-6.5.384-10.769-4.385-5.154-4.769-5.097-10.827.058-6.058 4.712-10.712L458.346-480 242.423-696.038q-3.885-3.885-4.269-10.327-.385-6.443 4.269-11.212t10.769-4.769q6.116 0 11.27 4.269L480-501.654l216.423-216.423q3.5-3.5 10-3.885 6.5-.384 11.654 4.385 4.269 4.769 4.212 10.827-.058 6.058-4.712 10.712L501.654-480l215.923 216.038q3.885 3.885 4.269 10.327.385 6.443-4.269 11.212t-10.769 4.769q-6.116 0-10.385-5.154L480-458.346Z"/></svg>